<svg xmlns="http://www.w3.org/2000/svg" width="1200" height="150" viewBox="0 0 1200 150" role="img" aria-label="FOLLOW  THE  WHITE  RABBIT"><defs><linearGradient id="edge" x1="0" y1="0" x2="0" y2="1"><stop offset="0%" stop-color="#0D0208" stop-opacity="1"/><stop offset="16%" stop-color="#0D0208" stop-opacity="0"/><stop offset="84%" stop-color="#0D0208" stop-opacity="0"/><stop offset="100%" stop-color="#0D0208" stop-opacity="1"/></linearGradient><radialGradient id="vig" cx="50%" cy="50%" r="62%"><stop offset="0%" stop-color="#0D0208" stop-opacity="0.95"/><stop offset="55%" stop-color="#0D0208" stop-opacity="0.74"/><stop offset="100%" stop-color="#0D0208" stop-opacity="0"/></radialGradient><linearGradient id="band" x1="0" y1="0" x2="1" y2="0"><stop offset="0%" stop-color="#0D0208" stop-opacity="0"/><stop offset="12%" stop-color="#0D0208" stop-opacity="0.93"/><stop offset="88%" stop-color="#0D0208" stop-opacity="0.93"/><stop offset="100%" stop-color="#0D0208" stop-opacity="0"/></linearGradient><filter id="glow" x="-30%" y="-60%" width="160%" height="220%"><feGaussianBlur stdDeviation="3" result="b"/><feMerge><feMergeNode in="b"/><feMergeNode in="b"/><feMergeNode in="SourceGraphic"/></feMerge></filter></defs><style>.g{font-family:'Share Tech Mono','Fira Code','DejaVu Sans Mono','Consolas',monospace;font-size:16px}@keyframes fall{from{transform:translateY(-280px)}to{transform:translateY(150px)}}.col{animation-name:fall;animation-timing-function:linear;animation-iteration-count:infinite}@keyframes fk{0%,100%{opacity:.85}45%{opacity:.08}}.fk{animation:fk 1.1s steps(2,end) infinite}@keyframes fk2{0%,100%{opacity:.55}50%{opacity:1}}.fk2{animation:fk2 .55s ease-in-out infinite}@keyframes cur{0%,49%{opacity:1}50%,100%{opacity:0}}.cur{animation:cur 1s steps(1,end) infinite}@keyframes scan{from{transform:translateY(-8px)}to{transform:translateY(158px)}}.scan{animation:scan 5.5s linear infinite}@keyframes breathe{0%,100%{opacity:.88}50%{opacity:1}}.ttl{animation:breathe 3.4s ease-in-out infinite}</style><rect width="1200" height="150" fill="#0D0208"/><style>.d0{fill:#D8FFE0;fill-opacity:1.0}.d1{fill:#7CFFA0;fill-opacity:0.95}.d2{fill:#00FF41;fill-opacity:0.9}.d3{fill:#00FF41;fill-opacity:0.9}.d4{fill:#00C82C;fill-opacity:0.57}.d5{fill:#00C82C;fill-opacity:0.5}.d6{fill:#00C82C;fill-opacity:0.43}.d7{fill:#00C82C;fill-opacity:0.36}.d8{fill:#008F11;fill-opacity:0.24}.d9{fill:#008F11;fill-opacity:0.2}.d10{fill:#008F11;fill-opacity:0.15}.d11{fill:#008F11;fill-opacity:0.1}.d12{fill:#008F11;fill-opacity:0.08}.d13{fill:#008F11;fill-opacity:0.08}</style><g class="g" text-anchor="middle"><g transform="translate(10,0)"><g class="col" style="animation-duration:5.05s;animation-delay:-0.72s"><text y="0" class="d13">C</text><text y="20" class="d12">5</text><text y="40" class="d11">メ</text><text y="60" class="d10">6</text><text y="80" class="d9">6</text><text y="100" class="d8">1</text><text y="120" class="d7">8</text><text y="140" class="d6">7</text><text y="160" class="d5">S</text><text y="180" class="d4">!</text><text y="200" class="d3">ロ</text><text y="220" class="d2 fk2">ア</text><text y="240" class="d1">7</text><text y="260" class="d0 fk2">ヨ</text></g></g><g transform="translate(30,0)"><g class="col" style="animation-duration:6.16s;animation-delay:-3.24s"><text y="0" class="d13">リ</text><text y="20" class="d12 fk">K</text><text y="40" class="d11 fk">ホ</text><text y="60" class="d10">ケ</text><text y="80" class="d9">4</text><text y="100" class="d8">1</text><text y="120" class="d7">@</text><text y="140" class="d6">エ</text><text y="160" class="d5">7</text><text y="180" class="d4">モ</text><text y="200" class="d3">9</text><text y="220" class="d2">9</text><text y="240" class="d1">ヨ</text><text y="260" class="d0 fk2">サ</text></g></g><g transform="translate(50,0)"><g class="col" style="animation-duration:10.89s;animation-delay:-7.26s"><text y="0" class="d13">9</text><text y="20" class="d12">J</text><text y="40" class="d11">ル</text><text y="60" class="d10">6</text><text y="80" class="d9">G</text><text y="100" class="d8">ユ</text><text y="120" class="d7">エ</text><text y="140" class="d6 fk">4</text><text y="160" class="d5">F</text><text y="180" class="d4">キ</text><text y="200" class="d3">ヤ</text><text y="220" class="d2">7</text><text y="240" class="d1">6</text><text y="260" class="d0">%</text></g></g><g transform="translate(70,0)"><g class="col" style="animation-duration:9.76s;animation-delay:-6.52s"><text y="0" class="d13 fk">ネ</text><text y="20" class="d12">1</text><text y="40" class="d11">イ</text><text y="60" class="d10">2</text><text y="80" class="d9">5</text><text y="100" class="d8">5</text><text y="120" class="d7">$</text><text y="140" class="d6">R</text><text y="160" class="d5">レ</text><text y="180" class="d4">ス</text><text y="200" class="d3">/</text><text y="220" class="d2 fk2">マ</text><text y="240" class="d1 fk2">ス</text><text y="260" class="d0">1</text></g></g><g transform="translate(90,0)"><g class="col" style="animation-duration:10.2s;animation-delay:-4.83s"><text y="0" class="d13">E</text><text y="20" class="d12">ル</text><text y="40" class="d11">L</text><text y="60" class="d10 fk">1</text><text y="80" class="d9">%</text><text y="100" class="d8">D</text><text y="120" class="d7 fk">|</text><text y="140" class="d6">ニ</text><text y="160" class="d5">F</text><text y="180" class="d4 fk">X</text><text y="200" class="d3 fk">7</text><text y="220" class="d2">モ</text><text y="240" class="d1 fk2">7</text><text y="260" class="d0 fk2">*</text></g></g><g transform="translate(110,0)"><g class="col" style="animation-duration:9.35s;animation-delay:-4.41s"><text y="0" class="d13">ツ</text><text y="20" class="d12 fk">%</text><text y="40" class="d11">2</text><text y="60" class="d10">!</text><text y="80" class="d9">S</text><text y="100" class="d8">ム</text><text y="120" class="d7">K</text><text y="140" class="d6">Z</text><text y="160" class="d5">ク</text><text y="180" class="d4">マ</text><text y="200" class="d3">ネ</text><text y="220" class="d2">ソ</text><text y="240" class="d1">7</text><text y="260" class="d0 fk2">テ</text></g></g><g transform="translate(130,0)"><g class="col" style="animation-duration:5.09s;animation-delay:-2.26s"><text y="0" class="d13">U</text><text y="20" class="d12">3</text><text y="40" class="d11 fk">テ</text><text y="60" class="d10">Z</text><text y="80" class="d9">%</text><text y="100" class="d8">0</text><text y="120" class="d7">M</text><text y="140" class="d6">H</text><text y="160" class="d5">キ</text><text y="180" class="d4">}</text><text y="200" class="d3">メ</text><text y="220" class="d2 fk2">5</text><text y="240" class="d1 fk2">R</text><text y="260" class="d0">ロ</text></g></g><g transform="translate(150,0)"><g class="col" style="animation-duration:7.03s;animation-delay:-4.17s"><text y="0" class="d13">ヤ</text><text y="20" class="d12">サ</text><text y="40" class="d11">ワ</text><text y="60" class="d10">ト</text><text y="80" class="d9">X</text><text y="100" class="d8">L</text><text y="120" class="d7 fk">タ</text><text y="140" class="d6">3</text><text y="160" class="d5">テ</text><text y="180" class="d4">ウ</text><text y="200" class="d3">?</text><text y="220" class="d2">イ</text><text y="240" class="d1">0</text><text y="260" class="d0">!</text></g></g><g transform="translate(170,0)"><g class="col" style="animation-duration:7.2s;animation-delay:-2.22s"><text y="0" class="d13">9</text><text y="20" class="d12">ナ</text><text y="40" class="d11 fk">H</text><text y="60" class="d10">]</text><text y="80" class="d9">ノ</text><text y="100" class="d8">ミ</text><text y="120" class="d7">V</text><text y="140" class="d6 fk">1</text><text y="160" class="d5">9</text><text y="180" class="d4">サ</text><text y="200" class="d3">C</text><text y="220" class="d2 fk2">N</text><text y="240" class="d1 fk2">ル</text><text y="260" class="d0">N</text></g></g><g transform="translate(190,0)"><g class="col" style="animation-duration:5.89s;animation-delay:-2.07s"><text y="0" class="d13">8</text><text y="20" class="d12">コ</text><text y="40" class="d11 fk">フ</text><text y="60" class="d10 fk">@</text><text y="80" class="d9">5</text><text y="100" class="d8">M</text><text y="120" class="d7">リ</text><text y="140" class="d6">2</text><text y="160" class="d5">=</text><text y="180" class="d4">!</text><text y="200" class="d3 fk">ナ</text><text y="220" class="d2 fk2">8</text><text y="240" class="d1">シ</text><text y="260" class="d0">ク</text></g></g><g transform="translate(210,0)"><g class="col" style="animation-duration:11.33s;animation-delay:-9.75s"><text y="0" class="d13">1</text><text y="20" class="d12">1</text><text y="40" class="d11">リ</text><text y="60" class="d10">ワ</text><text y="80" class="d9">U</text><text y="100" class="d8">A</text><text y="120" class="d7">オ</text><text y="140" class="d6">9</text><text y="160" class="d5">7</text><text y="180" class="d4 fk">ワ</text><text y="200" class="d3">セ</text><text y="220" class="d2 fk2">=</text><text y="240" class="d1">0</text><text y="260" class="d0">ヒ</text></g></g><g transform="translate(230,0)"><g class="col" style="animation-duration:7.22s;animation-delay:-3.57s"><text y="0" class="d13">3</text><text y="20" class="d12">ヤ</text><text y="40" class="d11">|</text><text y="60" class="d10">6</text><text y="80" class="d9">ナ</text><text y="100" class="d8">T</text><text y="120" class="d7 fk">|</text><text y="140" class="d6">ス</text><text y="160" class="d5">R</text><text y="180" class="d4">$</text><text y="200" class="d3 fk">V</text><text y="220" class="d2 fk2">キ</text><text y="240" class="d1 fk2">L</text><text y="260" class="d0">8</text></g></g><g transform="translate(250,0)"><g class="col" style="animation-duration:10.22s;animation-delay:-2.76s"><text y="0" class="d13">M</text><text y="20" class="d12">?</text><text y="40" class="d11">E</text><text y="60" class="d10">Z</text><text y="80" class="d9">3</text><text y="100" class="d8">ヌ</text><text y="120" class="d7 fk">ニ</text><text y="140" class="d6">L</text><text y="160" class="d5">A</text><text y="180" class="d4 fk">}</text><text y="200" class="d3">5</text><text y="220" class="d2">ナ</text><text y="240" class="d1">2</text><text y="260" class="d0">U</text></g></g><g transform="translate(270,0)"><g class="col" style="animation-duration:8.98s;animation-delay:-7.7s"><text y="0" class="d13">ト</text><text y="20" class="d12">ヤ</text><text y="40" class="d11">ン</text><text y="60" class="d10">Z</text><text y="80" class="d9">0</text><text y="100" class="d8">E</text><text y="120" class="d7">!</text><text y="140" class="d6 fk">ロ</text><text y="160" class="d5">9</text><text y="180" class="d4">B</text><text y="200" class="d3">Y</text><text y="220" class="d2">0</text><text y="240" class="d1 fk2">1</text><text y="260" class="d0 fk2">4</text></g></g><g transform="translate(290,0)"><g class="col" style="animation-duration:4.99s;animation-delay:-3.72s"><text y="0" class="d13">F</text><text y="20" class="d12 fk">0</text><text y="40" class="d11">=</text><text y="60" class="d10">ソ</text><text y="80" class="d9">Y</text><text y="100" class="d8">H</text><text y="120" class="d7 fk">キ</text><text y="140" class="d6">6</text><text y="160" class="d5">B</text><text y="180" class="d4">T</text><text y="200" class="d3">*</text><text y="220" class="d2">R</text><text y="240" class="d1">ル</text><text y="260" class="d0">ノ</text></g></g><g transform="translate(310,0)"><g class="col" style="animation-duration:9.06s;animation-delay:-1.88s"><text y="0" class="d13">ア</text><text y="20" class="d12">2</text><text y="40" class="d11">2</text><text y="60" class="d10">E</text><text y="80" class="d9">R</text><text y="100" class="d8">X</text><text y="120" class="d7">U</text><text y="140" class="d6">ワ</text><text y="160" class="d5">ク</text><text y="180" class="d4">A</text><text y="200" class="d3">コ</text><text y="220" class="d2 fk2">ミ</text><text y="240" class="d1">Y</text><text y="260" class="d0">3</text></g></g><g transform="translate(330,0)"><g class="col" style="animation-duration:5.37s;animation-delay:-3.04s"><text y="0" class="d13">3</text><text y="20" class="d12">ソ</text><text y="40" class="d11">[</text><text y="60" class="d10">R</text><text y="80" class="d9">/</text><text y="100" class="d8 fk">ス</text><text y="120" class="d7">2</text><text y="140" class="d6">ツ</text><text y="160" class="d5">@</text><text y="180" class="d4">$</text><text y="200" class="d3">イ</text><text y="220" class="d2">X</text><text y="240" class="d1 fk2">ホ</text><text y="260" class="d0 fk2">コ</text></g></g><g transform="translate(350,0)"><g class="col" style="animation-duration:5.3s;animation-delay:-2.5s"><text y="0" class="d13">1</text><text y="20" class="d12">{</text><text y="40" class="d11">9</text><text y="60" class="d10">!</text><text y="80" class="d9">E</text><text y="100" class="d8">9</text><text y="120" class="d7">ロ</text><text y="140" class="d6 fk">8</text><text y="160" class="d5">レ</text><text y="180" class="d4">K</text><text y="200" class="d3">C</text><text y="220" class="d2">シ</text><text y="240" class="d1 fk2">マ</text><text y="260" class="d0 fk2">7</text></g></g><g transform="translate(370,0)"><g class="col" style="animation-duration:6.49s;animation-delay:-1.12s"><text y="0" class="d13">ル</text><text y="20" class="d12">%</text><text y="40" class="d11">7</text><text y="60" class="d10">ニ</text><text y="80" class="d9">ン</text><text y="100" class="d8">エ</text><text y="120" class="d7">3</text><text y="140" class="d6">ン</text><text y="160" class="d5">N</text><text y="180" class="d4">ル</text><text y="200" class="d3">ロ</text><text y="220" class="d2">ス</text><text y="240" class="d1">9</text><text y="260" class="d0 fk2">ホ</text></g></g><g transform="translate(390,0)"><g class="col" style="animation-duration:4.65s;animation-delay:-3.14s"><text y="0" class="d13">ソ</text><text y="20" class="d12">ユ</text><text y="40" class="d11">ヨ</text><text y="60" class="d10">+</text><text y="80" class="d9 fk">}</text><text y="100" class="d8">ス</text><text y="120" class="d7">カ</text><text y="140" class="d6 fk">ミ</text><text y="160" class="d5">ム</text><text y="180" class="d4">3</text><text y="200" class="d3">W</text><text y="220" class="d2">}</text><text y="240" class="d1 fk2">]</text><text y="260" class="d0 fk2">S</text></g></g><g transform="translate(410,0)"><g class="col" style="animation-duration:8.93s;animation-delay:-3.45s"><text y="0" class="d13">ト</text><text y="20" class="d12">[</text><text y="40" class="d11">ヒ</text><text y="60" class="d10">A</text><text y="80" class="d9 fk">Q</text><text y="100" class="d8">ク</text><text y="120" class="d7">[</text><text y="140" class="d6">ヤ</text><text y="160" class="d5 fk">ウ</text><text y="180" class="d4">キ</text><text y="200" class="d3">ユ</text><text y="220" class="d2 fk2">ム</text><text y="240" class="d1">6</text><text y="260" class="d0">N</text></g></g><g transform="translate(430,0)"><g class="col" style="animation-duration:5.39s;animation-delay:-0.11s"><text y="0" class="d13">ス</text><text y="20" class="d12">サ</text><text y="40" class="d11">/</text><text y="60" class="d10">Q</text><text y="80" class="d9 fk">=</text><text y="100" class="d8">ト</text><text y="120" class="d7">4</text><text y="140" class="d6">メ</text><text y="160" class="d5">ヌ</text><text y="180" class="d4">ト</text><text y="200" class="d3">ア</text><text y="220" class="d2 fk2">@</text><text y="240" class="d1">9</text><text y="260" class="d0">マ</text></g></g><g transform="translate(450,0)"><g class="col" style="animation-duration:4.49s;animation-delay:-3.7s"><text y="0" class="d13">ヌ</text><text y="20" class="d12">ロ</text><text y="40" class="d11">3</text><text y="60" class="d10">5</text><text y="80" class="d9">カ</text><text y="100" class="d8">}</text><text y="120" class="d7">?</text><text y="140" class="d6">シ</text><text y="160" class="d5">2</text><text y="180" class="d4">シ</text><text y="200" class="d3">ワ</text><text y="220" class="d2">ミ</text><text y="240" class="d1">1</text><text y="260" class="d0 fk2">ヤ</text></g></g><g transform="translate(470,0)"><g class="col" style="animation-duration:8.09s;animation-delay:-2.75s"><text y="0" class="d13">N</text><text y="20" class="d12">}</text><text y="40" class="d11">M</text><text y="60" class="d10">C</text><text y="80" class="d9">4</text><text y="100" class="d8">ク</text><text y="120" class="d7">2</text><text y="140" class="d6">0</text><text y="160" class="d5">キ</text><text y="180" class="d4">F</text><text y="200" class="d3">ヒ</text><text y="220" class="d2">シ</text><text y="240" class="d1 fk2">ワ</text><text y="260" class="d0">オ</text></g></g><g transform="translate(490,0)"><g class="col" style="animation-duration:11.22s;animation-delay:-1.96s"><text y="0" class="d13">?</text><text y="20" class="d12 fk">メ</text><text y="40" class="d11">M</text><text y="60" class="d10">ミ</text><text y="80" class="d9">ム</text><text y="100" class="d8">マ</text><text y="120" class="d7 fk">K</text><text y="140" class="d6">エ</text><text y="160" class="d5">@</text><text y="180" class="d4">F</text><text y="200" class="d3">T</text><text y="220" class="d2 fk2">ワ</text><text y="240" class="d1">+</text><text y="260" class="d0 fk2">ラ</text></g></g><g transform="translate(510,0)"><g class="col" style="animation-duration:4.35s;animation-delay:-0.76s"><text y="0" class="d13">D</text><text y="20" class="d12">+</text><text y="40" class="d11">ホ</text><text y="60" class="d10">E</text><text y="80" class="d9">ホ</text><text y="100" class="d8">ワ</text><text y="120" class="d7">V</text><text y="140" class="d6">D</text><text y="160" class="d5">ニ</text><text y="180" class="d4">ム</text><text y="200" class="d3">ク</text><text y="220" class="d2 fk2">H</text><text y="240" class="d1 fk2">ヌ</text><text y="260" class="d0">5</text></g></g><g transform="translate(530,0)"><g class="col" style="animation-duration:8.88s;animation-delay:-2.18s"><text y="0" class="d13">ミ</text><text y="20" class="d12">ナ</text><text y="40" class="d11">ヤ</text><text y="60" class="d10">$</text><text y="80" class="d9">2</text><text y="100" class="d8">4</text><text y="120" class="d7">8</text><text y="140" class="d6">2</text><text y="160" class="d5">1</text><text y="180" class="d4">!</text><text y="200" class="d3">セ</text><text y="220" class="d2 fk2">9</text><text y="240" class="d1 fk2">1</text><text y="260" class="d0 fk2">E</text></g></g><g transform="translate(550,0)"><g class="col" style="animation-duration:10.43s;animation-delay:-1.67s"><text y="0" class="d13">ル</text><text y="20" class="d12">3</text><text y="40" class="d11">5</text><text y="60" class="d10">P</text><text y="80" class="d9">3</text><text y="100" class="d8">/</text><text y="120" class="d7">9</text><text y="140" class="d6">キ</text><text y="160" class="d5">ユ</text><text y="180" class="d4">G</text><text y="200" class="d3">M</text><text y="220" class="d2 fk2">サ</text><text y="240" class="d1 fk2">タ</text><text y="260" class="d0">}</text></g></g><g transform="translate(570,0)"><g class="col" style="animation-duration:7.66s;animation-delay:-5.84s"><text y="0" class="d13">1</text><text y="20" class="d12">0</text><text y="40" class="d11">=</text><text y="60" class="d10">テ</text><text y="80" class="d9">X</text><text y="100" class="d8">タ</text><text y="120" class="d7">レ</text><text y="140" class="d6">マ</text><text y="160" class="d5">キ</text><text y="180" class="d4">A</text><text y="200" class="d3">6</text><text y="220" class="d2 fk2">ヤ</text><text y="240" class="d1 fk2">ル</text><text y="260" class="d0">ラ</text></g></g><g transform="translate(590,0)"><g class="col" style="animation-duration:10.23s;animation-delay:-9.95s"><text y="0" class="d13">ユ</text><text y="20" class="d12">P</text><text y="40" class="d11">ネ</text><text y="60" class="d10">1</text><text y="80" class="d9">P</text><text y="100" class="d8 fk">J</text><text y="120" class="d7">6</text><text y="140" class="d6 fk">W</text><text y="160" class="d5">=</text><text y="180" class="d4">ヘ</text><text y="200" class="d3 fk">レ</text><text y="220" class="d2">オ</text><text y="240" class="d1">@</text><text y="260" class="d0">8</text></g></g><g transform="translate(610,0)"><g class="col" style="animation-duration:4.99s;animation-delay:-0.37s"><text y="0" class="d13">%</text><text y="20" class="d12">8</text><text y="40" class="d11">タ</text><text y="60" class="d10">L</text><text y="80" class="d9">7</text><text y="100" class="d8">A</text><text y="120" class="d7">*</text><text y="140" class="d6">/</text><text y="160" class="d5 fk">メ</text><text y="180" class="d4">ノ</text><text y="200" class="d3 fk">J</text><text y="220" class="d2">!</text><text y="240" class="d1 fk2">%</text><text y="260" class="d0">9</text></g></g><g transform="translate(630,0)"><g class="col" style="animation-duration:10.96s;animation-delay:-9.68s"><text y="0" class="d13">ヘ</text><text y="20" class="d12">Z</text><text y="40" class="d11">モ</text><text y="60" class="d10">ヤ</text><text y="80" class="d9">R</text><text y="100" class="d8">チ</text><text y="120" class="d7">5</text><text y="140" class="d6">Z</text><text y="160" class="d5">コ</text><text y="180" class="d4 fk">B</text><text y="200" class="d3">*</text><text y="220" class="d2 fk2">6</text><text y="240" class="d1 fk2">G</text><text y="260" class="d0">/</text></g></g><g transform="translate(650,0)"><g class="col" style="animation-duration:5.39s;animation-delay:-4.21s"><text y="0" class="d13">ク</text><text y="20" class="d12">M</text><text y="40" class="d11">Z</text><text y="60" class="d10">/</text><text y="80" class="d9">テ</text><text y="100" class="d8">ユ</text><text y="120" class="d7 fk">ミ</text><text y="140" class="d6">4</text><text y="160" class="d5">F</text><text y="180" class="d4">A</text><text y="200" class="d3">3</text><text y="220" class="d2">X</text><text y="240" class="d1">0</text><text y="260" class="d0 fk2">レ</text></g></g><g transform="translate(670,0)"><g class="col" style="animation-duration:7.91s;animation-delay:-1.34s"><text y="0" class="d13">ノ</text><text y="20" class="d12">5</text><text y="40" class="d11">ユ</text><text y="60" class="d10">+</text><text y="80" class="d9">U</text><text y="100" class="d8">V</text><text y="120" class="d7 fk">モ</text><text y="140" class="d6">4</text><text y="160" class="d5 fk">?</text><text y="180" class="d4">A</text><text y="200" class="d3">W</text><text y="220" class="d2">カ</text><text y="240" class="d1">ホ</text><text y="260" class="d0">コ</text></g></g><g transform="translate(690,0)"><g class="col" style="animation-duration:8.77s;animation-delay:-5.05s"><text y="0" class="d13">オ</text><text y="20" class="d12">イ</text><text y="40" class="d11 fk">0</text><text y="60" class="d10">イ</text><text y="80" class="d9">1</text><text y="100" class="d8">Z</text><text y="120" class="d7">ホ</text><text y="140" class="d6">ス</text><text y="160" class="d5">セ</text><text y="180" class="d4">オ</text><text y="200" class="d3">ト</text><text y="220" class="d2">ト</text><text y="240" class="d1">V</text><text y="260" class="d0">/</text></g></g><g transform="translate(710,0)"><g class="col" style="animation-duration:8.16s;animation-delay:-0.96s"><text y="0" class="d13">{</text><text y="20" class="d12">5</text><text y="40" class="d11">モ</text><text y="60" class="d10 fk">[</text><text y="80" class="d9">N</text><text y="100" class="d8 fk">ヤ</text><text y="120" class="d7">H</text><text y="140" class="d6 fk">カ</text><text y="160" class="d5 fk">ケ</text><text y="180" class="d4 fk">}</text><text y="200" class="d3">4</text><text y="220" class="d2 fk2">0</text><text y="240" class="d1">ク</text><text y="260" class="d0 fk2">C</text></g></g><g transform="translate(730,0)"><g class="col" style="animation-duration:8.85s;animation-delay:-0.34s"><text y="0" class="d13">*</text><text y="20" class="d12">9</text><text y="40" class="d11">3</text><text y="60" class="d10">L</text><text y="80" class="d9">W</text><text y="100" class="d8">ヒ</text><text y="120" class="d7">A</text><text y="140" class="d6">+</text><text y="160" class="d5">T</text><text y="180" class="d4 fk">X</text><text y="200" class="d3">Q</text><text y="220" class="d2">ス</text><text y="240" class="d1">3</text><text y="260" class="d0">ニ</text></g></g><g transform="translate(750,0)"><g class="col" style="animation-duration:7.2s;animation-delay:-3.24s"><text y="0" class="d13">ク</text><text y="20" class="d12">E</text><text y="40" class="d11">マ</text><text y="60" class="d10 fk">ネ</text><text y="80" class="d9">チ</text><text y="100" class="d8">N</text><text y="120" class="d7">J</text><text y="140" class="d6">ニ</text><text y="160" class="d5 fk">ロ</text><text y="180" class="d4">9</text><text y="200" class="d3">B</text><text y="220" class="d2 fk2">$</text><text y="240" class="d1 fk2">ミ</text><text y="260" class="d0">X</text></g></g><g transform="translate(770,0)"><g class="col" style="animation-duration:9.71s;animation-delay:-2.55s"><text y="0" class="d13">4</text><text y="20" class="d12">P</text><text y="40" class="d11">3</text><text y="60" class="d10">A</text><text y="80" class="d9">A</text><text y="100" class="d8">テ</text><text y="120" class="d7">ス</text><text y="140" class="d6">*</text><text y="160" class="d5">9</text><text y="180" class="d4 fk">7</text><text y="200" class="d3">C</text><text y="220" class="d2">ハ</text><text y="240" class="d1 fk2">C</text><text y="260" class="d0">ニ</text></g></g><g transform="translate(790,0)"><g class="col" style="animation-duration:7.07s;animation-delay:-0.11s"><text y="0" class="d13">ツ</text><text y="20" class="d12 fk">ク</text><text y="40" class="d11">6</text><text y="60" class="d10">モ</text><text y="80" class="d9">*</text><text y="100" class="d8">カ</text><text y="120" class="d7">L</text><text y="140" class="d6">7</text><text y="160" class="d5 fk">[</text><text y="180" class="d4">ヤ</text><text y="200" class="d3">=</text><text y="220" class="d2 fk2">S</text><text y="240" class="d1 fk2">J</text><text y="260" class="d0 fk2">メ</text></g></g><g transform="translate(810,0)"><g class="col" style="animation-duration:11.19s;animation-delay:-9.14s"><text y="0" class="d13">ソ</text><text y="20" class="d12">S</text><text y="40" class="d11 fk">!</text><text y="60" class="d10">0</text><text y="80" class="d9">1</text><text y="100" class="d8">]</text><text y="120" class="d7">9</text><text y="140" class="d6">リ</text><text y="160" class="d5">セ</text><text y="180" class="d4">4</text><text y="200" class="d3">ツ</text><text y="220" class="d2">N</text><text y="240" class="d1">E</text><text y="260" class="d0">Y</text></g></g><g transform="translate(830,0)"><g class="col" style="animation-duration:6.27s;animation-delay:-5.17s"><text y="0" class="d13">8</text><text y="20" class="d12">M</text><text y="40" class="d11">リ</text><text y="60" class="d10">ユ</text><text y="80" class="d9">9</text><text y="100" class="d8">3</text><text y="120" class="d7">ホ</text><text y="140" class="d6">モ</text><text y="160" class="d5">4</text><text y="180" class="d4 fk">ヒ</text><text y="200" class="d3">カ</text><text y="220" class="d2">ノ</text><text y="240" class="d1 fk2">P</text><text y="260" class="d0 fk2">ス</text></g></g><g transform="translate(850,0)"><g class="col" style="animation-duration:11.23s;animation-delay:-2.23s"><text y="0" class="d13">0</text><text y="20" class="d12">ロ</text><text y="40" class="d11">%</text><text y="60" class="d10">ア</text><text y="80" class="d9">D</text><text y="100" class="d8">3</text><text y="120" class="d7">タ</text><text y="140" class="d6">ウ</text><text y="160" class="d5">@</text><text y="180" class="d4">E</text><text y="200" class="d3">ヒ</text><text y="220" class="d2">9</text><text y="240" class="d1">サ</text><text y="260" class="d0">ニ</text></g></g><g transform="translate(870,0)"><g class="col" style="animation-duration:5.26s;animation-delay:-4.84s"><text y="0" class="d13 fk">@</text><text y="20" class="d12">9</text><text y="40" class="d11">$</text><text y="60" class="d10 fk">ナ</text><text y="80" class="d9">0</text><text y="100" class="d8">E</text><text y="120" class="d7">N</text><text y="140" class="d6 fk">ナ</text><text y="160" class="d5">M</text><text y="180" class="d4">E</text><text y="200" class="d3">C</text><text y="220" class="d2">ヘ</text><text y="240" class="d1 fk2">7</text><text y="260" class="d0 fk2">マ</text></g></g><g transform="translate(890,0)"><g class="col" style="animation-duration:10.65s;animation-delay:-0.89s"><text y="0" class="d13 fk">5</text><text y="20" class="d12">4</text><text y="40" class="d11">シ</text><text y="60" class="d10">ム</text><text y="80" class="d9">エ</text><text y="100" class="d8">ヤ</text><text y="120" class="d7">2</text><text y="140" class="d6">ミ</text><text y="160" class="d5 fk">E</text><text y="180" class="d4">ソ</text><text y="200" class="d3">+</text><text y="220" class="d2 fk2">ケ</text><text y="240" class="d1 fk2">R</text><text y="260" class="d0 fk2">H</text></g></g><g transform="translate(910,0)"><g class="col" style="animation-duration:7.11s;animation-delay:-0.55s"><text y="0" class="d13">7</text><text y="20" class="d12">ト</text><text y="40" class="d11">/</text><text y="60" class="d10 fk">カ</text><text y="80" class="d9">Y</text><text y="100" class="d8">ハ</text><text y="120" class="d7">モ</text><text y="140" class="d6">サ</text><text y="160" class="d5">R</text><text y="180" class="d4">9</text><text y="200" class="d3">ホ</text><text y="220" class="d2">オ</text><text y="240" class="d1">ラ</text><text y="260" class="d0">ア</text></g></g><g transform="translate(930,0)"><g class="col" style="animation-duration:4.56s;animation-delay:-0.36s"><text y="0" class="d13">K</text><text y="20" class="d12">6</text><text y="40" class="d11">M</text><text y="60" class="d10">ム</text><text y="80" class="d9 fk">ン</text><text y="100" class="d8">テ</text><text y="120" class="d7">P</text><text y="140" class="d6">5</text><text y="160" class="d5">サ</text><text y="180" class="d4">T</text><text y="200" class="d3 fk">0</text><text y="220" class="d2">M</text><text y="240" class="d1">ス</text><text y="260" class="d0">5</text></g></g><g transform="translate(950,0)"><g class="col" style="animation-duration:10.69s;animation-delay:-9.84s"><text y="0" class="d13">S</text><text y="20" class="d12">ケ</text><text y="40" class="d11">ン</text><text y="60" class="d10 fk">8</text><text y="80" class="d9">イ</text><text y="100" class="d8">2</text><text y="120" class="d7">4</text><text y="140" class="d6">8</text><text y="160" class="d5">ラ</text><text y="180" class="d4">ラ</text><text y="200" class="d3">6</text><text y="220" class="d2">8</text><text y="240" class="d1">V</text><text y="260" class="d0">M</text></g></g><g transform="translate(970,0)"><g class="col" style="animation-duration:11.02s;animation-delay:-6.77s"><text y="0" class="d13">キ</text><text y="20" class="d12">9</text><text y="40" class="d11">/</text><text y="60" class="d10">ト</text><text y="80" class="d9 fk">6</text><text y="100" class="d8">マ</text><text y="120" class="d7">ソ</text><text y="140" class="d6">%</text><text y="160" class="d5">4</text><text y="180" class="d4">1</text><text y="200" class="d3">Q</text><text y="220" class="d2">0</text><text y="240" class="d1">モ</text><text y="260" class="d0 fk2">9</text></g></g><g transform="translate(990,0)"><g class="col" style="animation-duration:11.19s;animation-delay:-0.74s"><text y="0" class="d13">0</text><text y="20" class="d12">$</text><text y="40" class="d11">ネ</text><text y="60" class="d10">ユ</text><text y="80" class="d9">=</text><text y="100" class="d8 fk">N</text><text y="120" class="d7">6</text><text y="140" class="d6">1</text><text y="160" class="d5">]</text><text y="180" class="d4 fk">ワ</text><text y="200" class="d3">マ</text><text y="220" class="d2 fk2">9</text><text y="240" class="d1">=</text><text y="260" class="d0 fk2">E</text></g></g><g transform="translate(1010,0)"><g class="col" style="animation-duration:9.09s;animation-delay:-8.84s"><text y="0" class="d13">コ</text><text y="20" class="d12">ノ</text><text y="40" class="d11">3</text><text y="60" class="d10">6</text><text y="80" class="d9">タ</text><text y="100" class="d8">ケ</text><text y="120" class="d7">7</text><text y="140" class="d6">W</text><text y="160" class="d5">ヘ</text><text y="180" class="d4">カ</text><text y="200" class="d3">+</text><text y="220" class="d2">6</text><text y="240" class="d1 fk2">ア</text><text y="260" class="d0">/</text></g></g><g transform="translate(1030,0)"><g class="col" style="animation-duration:11.25s;animation-delay:-5.58s"><text y="0" class="d13">ネ</text><text y="20" class="d12">タ</text><text y="40" class="d11">/</text><text y="60" class="d10">ス</text><text y="80" class="d9">0</text><text y="100" class="d8">4</text><text y="120" class="d7">4</text><text y="140" class="d6">3</text><text y="160" class="d5">ロ</text><text y="180" class="d4">サ</text><text y="200" class="d3">N</text><text y="220" class="d2">5</text><text y="240" class="d1 fk2">ヌ</text><text y="260" class="d0">=</text></g></g><g transform="translate(1050,0)"><g class="col" style="animation-duration:10.65s;animation-delay:-8.71s"><text y="0" class="d13">4</text><text y="20" class="d12">ン</text><text y="40" class="d11">F</text><text y="60" class="d10">イ</text><text y="80" class="d9">ユ</text><text y="100" class="d8">7</text><text y="120" class="d7">@</text><text y="140" class="d6">ラ</text><text y="160" class="d5">J</text><text y="180" class="d4">チ</text><text y="200" class="d3">@</text><text y="220" class="d2 fk2">ホ</text><text y="240" class="d1">8</text><text y="260" class="d0">ニ</text></g></g><g transform="translate(1070,0)"><g class="col" style="animation-duration:11.25s;animation-delay:-0.28s"><text y="0" class="d13">キ</text><text y="20" class="d12 fk">V</text><text y="40" class="d11">サ</text><text y="60" class="d10">{</text><text y="80" class="d9">P</text><text y="100" class="d8">6</text><text y="120" class="d7">@</text><text y="140" class="d6">7</text><text y="160" class="d5">ル</text><text y="180" class="d4">7</text><text y="200" class="d3 fk">9</text><text y="220" class="d2">キ</text><text y="240" class="d1 fk2">ヨ</text><text y="260" class="d0">{</text></g></g><g transform="translate(1090,0)"><g class="col" style="animation-duration:6.23s;animation-delay:-4.02s"><text y="0" class="d13">5</text><text y="20" class="d12">コ</text><text y="40" class="d11">7</text><text y="60" class="d10">コ</text><text y="80" class="d9">ネ</text><text y="100" class="d8">W</text><text y="120" class="d7 fk">ス</text><text y="140" class="d6">0</text><text y="160" class="d5">ロ</text><text y="180" class="d4">リ</text><text y="200" class="d3 fk">%</text><text y="220" class="d2">0</text><text y="240" class="d1 fk2">1</text><text y="260" class="d0">ト</text></g></g><g transform="translate(1110,0)"><g class="col" style="animation-duration:10.19s;animation-delay:-5.62s"><text y="0" class="d13">イ</text><text y="20" class="d12 fk">P</text><text y="40" class="d11">1</text><text y="60" class="d10 fk">メ</text><text y="80" class="d9">9</text><text y="100" class="d8">/</text><text y="120" class="d7">1</text><text y="140" class="d6">A</text><text y="160" class="d5">ホ</text><text y="180" class="d4">ヤ</text><text y="200" class="d3">7</text><text y="220" class="d2">7</text><text y="240" class="d1">モ</text><text y="260" class="d0">4</text></g></g><g transform="translate(1130,0)"><g class="col" style="animation-duration:6.94s;animation-delay:-2.5s"><text y="0" class="d13">ア</text><text y="20" class="d12">ツ</text><text y="40" class="d11">0</text><text y="60" class="d10">G</text><text y="80" class="d9">テ</text><text y="100" class="d8">ハ</text><text y="120" class="d7">モ</text><text y="140" class="d6">X</text><text y="160" class="d5">マ</text><text y="180" class="d4">8</text><text y="200" class="d3">ウ</text><text y="220" class="d2">[</text><text y="240" class="d1">@</text><text y="260" class="d0 fk2">D</text></g></g><g transform="translate(1150,0)"><g class="col" style="animation-duration:6.04s;animation-delay:-5.66s"><text y="0" class="d13">S</text><text y="20" class="d12">M</text><text y="40" class="d11">J</text><text y="60" class="d10">3</text><text y="80" class="d9">ウ</text><text y="100" class="d8">ヤ</text><text y="120" class="d7">8</text><text y="140" class="d6">ラ</text><text y="160" class="d5">マ</text><text y="180" class="d4 fk">Z</text><text y="200" class="d3">Q</text><text y="220" class="d2">V</text><text y="240" class="d1">8</text><text y="260" class="d0 fk2">ツ</text></g></g><g transform="translate(1170,0)"><g class="col" style="animation-duration:8.09s;animation-delay:-5.2s"><text y="0" class="d13">メ</text><text y="20" class="d12">サ</text><text y="40" class="d11">ル</text><text y="60" class="d10">P</text><text y="80" class="d9">マ</text><text y="100" class="d8">R</text><text y="120" class="d7 fk">7</text><text y="140" class="d6">8</text><text y="160" class="d5">6</text><text y="180" class="d4">[</text><text y="200" class="d3">ク</text><text y="220" class="d2 fk2">V</text><text y="240" class="d1">M</text><text y="260" class="d0">7</text></g></g><g transform="translate(1190,0)"><g class="col" style="animation-duration:5.68s;animation-delay:-1.11s"><text y="0" class="d13">3</text><text y="20" class="d12">レ</text><text y="40" class="d11">3</text><text y="60" class="d10">ク</text><text y="80" class="d9">ン</text><text y="100" class="d8 fk">1</text><text y="120" class="d7">4</text><text y="140" class="d6">リ</text><text y="160" class="d5">V</text><text y="180" class="d4 fk">C</text><text y="200" class="d3">ソ</text><text y="220" class="d2 fk2">}</text><text y="240" class="d1">テ</text><text y="260" class="d0">2</text></g></g></g><rect width="1200" height="150" fill="url(#edge)"/><ellipse cx="600" cy="75" rx="528" ry="69" fill="url(#vig)"/><rect x="305" y="57" width="590" height="36" fill="url(#band)"/><text class="g" x="600" y="81" text-anchor="middle" font-size="20" letter-spacing="8" fill="#00FF41" fill-opacity="0.9">FOLLOW  THE  WHITE  RABBIT</text><line x1="300" y1="97" x2="900" y2="97" stroke="#008F11" stroke-opacity="0.5" stroke-width="1"/><rect class="scan" x="0" y="0" width="1200" height="3" fill="#00FF41" fill-opacity="0.16"/><g fill="#000000" fill-opacity="0.13"><rect x="0" y="0" width="1200" height="1.4"/><rect x="0" y="4" width="1200" height="1.4"/><rect x="0" y="8" width="1200" height="1.4"/><rect x="0" y="12" width="1200" height="1.4"/><rect x="0" y="16" width="1200" height="1.4"/><rect x="0" y="20" width="1200" height="1.4"/><rect x="0" y="24" width="1200" height="1.4"/><rect x="0" y="28" width="1200" height="1.4"/><rect x="0" y="32" width="1200" height="1.4"/><rect x="0" y="36" width="1200" height="1.4"/><rect x="0" y="40" width="1200" height="1.4"/><rect x="0" y="44" width="1200" height="1.4"/><rect x="0" y="48" width="1200" height="1.4"/><rect x="0" y="52" width="1200" height="1.4"/><rect x="0" y="56" width="1200" height="1.4"/><rect x="0" y="60" width="1200" height="1.4"/><rect x="0" y="64" width="1200" height="1.4"/><rect x="0" y="68" width="1200" height="1.4"/><rect x="0" y="72" width="1200" height="1.4"/><rect x="0" y="76" width="1200" height="1.4"/><rect x="0" y="80" width="1200" height="1.4"/><rect x="0" y="84" width="1200" height="1.4"/><rect x="0" y="88" width="1200" height="1.4"/><rect x="0" y="92" width="1200" height="1.4"/><rect x="0" y="96" width="1200" height="1.4"/><rect x="0" y="100" width="1200" height="1.4"/><rect x="0" y="104" width="1200" height="1.4"/><rect x="0" y="108" width="1200" height="1.4"/><rect x="0" y="112" width="1200" height="1.4"/><rect x="0" y="116" width="1200" height="1.4"/><rect x="0" y="120" width="1200" height="1.4"/><rect x="0" y="124" width="1200" height="1.4"/><rect x="0" y="128" width="1200" height="1.4"/><rect x="0" y="132" width="1200" height="1.4"/><rect x="0" y="136" width="1200" height="1.4"/><rect x="0" y="140" width="1200" height="1.4"/><rect x="0" y="144" width="1200" height="1.4"/><rect x="0" y="148" width="1200" height="1.4"/></g><rect x="0.5" y="0.5" width="1199" height="149" fill="none" stroke="#008F11" stroke-opacity="0.55" stroke-width="1"/></svg>